<svg width="177" height="99" viewBox="0 0 177 99" fill="none" xmlns="http://www.w3.org/2000/svg">
<g filter="url(#filter0_d_1_5)">
<path d="M81.352 33.352C82.3333 33.352 83.0373 33.5653 83.464 33.992C83.9333 34.4187 84.168 34.9733 84.168 35.656C84.168 36.7653 83.8267 37.7467 83.144 38.6C82.504 39.4533 81.48 39.9013 80.072 39.944C76.7013 39.9867 73.672 39.7307 70.984 39.176C67.9973 45.5333 64.392 50.824 60.168 55.048C55.9867 59.2293 51.848 61.32 47.752 61.32C43.9973 61.32 41.1813 59.336 39.304 55.368C37.4267 51.3573 36.36 46.0027 36.104 39.304C33.544 46.728 30.6427 52.2533 27.4 55.88C24.2 59.5067 20.7867 61.32 17.16 61.32C13.064 61.32 9.97067 58.7813 7.88 53.704C5.78933 48.584 4.744 41.7147 4.744 33.096C4.744 26.824 5.29867 19.9333 6.408 12.424C6.70667 10.2907 7.24 8.81866 8.008 8.008C8.81867 7.15466 10.0773 6.728 11.784 6.728C13.064 6.728 14.0453 7.00533 14.728 7.56C15.4533 8.11466 15.816 9.13866 15.816 10.632C15.816 10.9307 15.7733 11.5067 15.688 12.36C14.408 21.1067 13.768 28.552 13.768 34.696C13.768 40.4133 14.2587 44.8293 15.24 47.944C16.2213 51.0587 17.544 52.616 19.208 52.616C20.7013 52.616 22.4933 51.0587 24.584 47.944C26.7173 44.7867 28.8293 40.136 30.92 33.992C33.0107 27.8053 34.7813 20.4453 36.232 11.912C36.5733 9.94933 37.192 8.60533 38.088 7.88C39.0267 7.112 40.2853 6.728 41.864 6.728C43.1867 6.728 44.1467 7.02666 44.744 7.624C45.384 8.17866 45.704 9.032 45.704 10.184C45.704 10.8667 45.6613 11.4 45.576 11.784C44.3813 18.7387 43.784 25.6933 43.784 32.648C43.784 37.384 43.9333 41.16 44.232 43.976C44.5733 46.792 45.192 48.9467 46.088 50.44C47.0267 51.8907 48.3707 52.616 50.12 52.616C52.168 52.616 54.4507 51.08 56.968 48.008C59.4853 44.8933 61.7893 41.032 63.88 36.424C61.2773 34.8027 59.3147 32.712 57.992 30.152C56.6693 27.5493 56.008 24.5627 56.008 21.192C56.008 17.8213 56.52 14.984 57.544 12.68C58.6107 10.3333 60.04 8.584 61.832 7.432C63.6667 6.28 65.6933 5.704 67.912 5.704C70.6427 5.704 72.7973 6.68533 74.376 8.648C75.9973 10.6107 76.808 13.2987 76.808 16.712C76.808 21.5333 75.7627 26.888 73.672 32.776C75.848 33.16 78.408 33.352 81.352 33.352ZM62.472 20.744C62.472 24.9253 63.816 28.0187 66.504 30.024C68.168 25.2453 69 21.2987 69 18.184C69 16.392 68.7653 15.0907 68.296 14.28C67.8267 13.4267 67.1867 13 66.376 13C65.224 13 64.2853 13.6827 63.56 15.048C62.8347 16.3707 62.472 18.2693 62.472 20.744ZM83.2565 61.32C80.6112 61.32 78.4992 60.36 76.9205 58.44C75.3418 56.52 74.5525 54.0027 74.5525 50.888C74.5525 47.4747 75.3418 44.2533 76.9205 41.224C78.4992 38.152 80.5898 35.6987 83.1925 33.864C85.8378 31.9867 88.6325 31.048 91.5765 31.048C92.5152 31.048 93.1338 31.24 93.4325 31.624C93.7738 31.9653 94.0512 32.6053 94.2645 33.544C95.1605 33.3733 96.0992 33.288 97.0805 33.288C99.1712 33.288 100.217 34.0347 100.217 35.528C100.217 36.424 99.8965 38.5573 99.2565 41.928C98.2752 46.8347 97.7845 50.248 97.7845 52.168C97.7845 52.808 97.9338 53.32 98.2325 53.704C98.5738 54.088 99.0005 54.28 99.5125 54.28C100.323 54.28 101.305 53.768 102.457 52.744C103.609 51.6773 105.166 49.9707 107.129 47.624C107.641 47.0267 108.217 46.728 108.857 46.728C109.411 46.728 109.838 46.984 110.137 47.496C110.478 48.008 110.649 48.712 110.649 49.608C110.649 51.3147 110.243 52.6373 109.433 53.576C107.683 55.752 105.827 57.5867 103.865 59.08C101.902 60.5733 100.003 61.32 98.1685 61.32C96.7605 61.32 95.4592 60.8507 94.2645 59.912C93.1125 58.9307 92.2378 57.608 91.6405 55.944C89.4218 59.528 86.6272 61.32 83.2565 61.32ZM85.5605 54.856C86.4992 54.856 87.3952 54.3013 88.2485 53.192C89.1018 52.0827 89.7205 50.6107 90.1045 48.776L92.4725 37C90.6805 37.0427 89.0165 37.7253 87.4805 39.048C85.9872 40.328 84.7925 42.0347 83.8965 44.168C83.0005 46.3013 82.5525 48.5627 82.5525 50.952C82.5525 52.2747 82.8085 53.256 83.3205 53.896C83.8752 54.536 84.6218 54.856 85.5605 54.856ZM129.703 46.728C130.258 46.728 130.684 46.984 130.983 47.496C131.324 48.008 131.495 48.712 131.495 49.608C131.495 51.3147 131.09 52.6373 130.279 53.576C128.444 55.8373 126.439 57.6933 124.263 59.144C122.13 60.5947 119.698 61.32 116.967 61.32C113.212 61.32 110.418 59.6133 108.583 56.2C106.791 52.7867 105.895 48.3707 105.895 42.952C105.895 37.7467 106.556 31.816 107.879 25.16C109.244 18.504 111.228 12.7867 113.831 8.008C116.476 3.22933 119.612 0.839996 123.239 0.839996C125.287 0.839996 126.887 1.8 128.039 3.72C129.234 5.59733 129.831 8.30667 129.831 11.848C129.831 16.9253 128.423 22.8133 125.607 29.512C122.791 36.2107 118.972 42.8453 114.151 49.416C114.45 51.1653 114.94 52.424 115.623 53.192C116.306 53.9173 117.202 54.28 118.311 54.28C120.06 54.28 121.596 53.7893 122.919 52.808C124.242 51.784 125.927 50.056 127.975 47.624C128.487 47.0267 129.063 46.728 129.703 46.728ZM121.831 7.176C120.85 7.176 119.74 8.94667 118.503 12.488C117.266 16.0293 116.178 20.424 115.239 25.672C114.3 30.92 113.788 35.9547 113.703 40.776C116.732 35.784 119.143 30.792 120.935 25.8C122.727 20.7653 123.623 16.1787 123.623 12.04C123.623 8.79733 123.026 7.176 121.831 7.176ZM150.578 46.728C151.133 46.728 151.559 46.984 151.858 47.496C152.199 48.008 152.37 48.712 152.37 49.608C152.37 51.3147 151.965 52.6373 151.154 53.576C149.319 55.8373 147.314 57.6933 145.138 59.144C143.005 60.5947 140.573 61.32 137.842 61.32C134.087 61.32 131.293 59.6133 129.458 56.2C127.666 52.7867 126.77 48.3707 126.77 42.952C126.77 37.7467 127.431 31.816 128.754 25.16C130.119 18.504 132.103 12.7867 134.706 8.008C137.351 3.22933 140.487 0.839996 144.114 0.839996C146.162 0.839996 147.762 1.8 148.914 3.72C150.109 5.59733 150.706 8.30667 150.706 11.848C150.706 16.9253 149.298 22.8133 146.482 29.512C143.666 36.2107 139.847 42.8453 135.026 49.416C135.325 51.1653 135.815 52.424 136.498 53.192C137.181 53.9173 138.077 54.28 139.186 54.28C140.935 54.28 142.471 53.7893 143.794 52.808C145.117 51.784 146.802 50.056 148.85 47.624C149.362 47.0267 149.938 46.728 150.578 46.728ZM142.706 7.176C141.725 7.176 140.615 8.94667 139.378 12.488C138.141 16.0293 137.053 20.424 136.114 25.672C135.175 30.92 134.663 35.9547 134.578 40.776C137.607 35.784 140.018 30.792 141.81 25.8C143.602 20.7653 144.498 16.1787 144.498 12.04C144.498 8.79733 143.901 7.176 142.706 7.176ZM169.597 31.176C170.578 31.176 171.261 31.304 171.645 31.56C172.029 31.816 172.221 32.2427 172.221 32.84C172.221 33.864 171.666 37.512 170.557 43.784C169.576 49.8 169 53.3627 168.829 54.472C167.25 65.4373 165.074 74.12 162.301 80.52C159.528 86.92 155.837 90.12 151.229 90.12C149.053 90.12 147.282 89.4373 145.917 88.072C144.552 86.7493 143.869 85 143.869 82.824C143.869 80.8187 144.317 78.7707 145.213 76.68C146.152 74.5893 147.858 72.1787 150.333 69.448C152.85 66.76 156.392 63.6667 160.957 60.168L161.149 58.696C161.448 57.1173 161.789 54.856 162.173 51.912C161.32 54.984 160.125 57.3307 158.589 58.952C157.053 60.5307 155.432 61.32 153.725 61.32C151.805 61.32 150.226 60.4453 148.989 58.696C147.794 56.904 147.197 54.6853 147.197 52.04C147.197 48.84 147.41 45.9173 147.837 43.272C148.264 40.584 148.968 37.7467 149.949 34.76C150.376 33.48 150.973 32.5627 151.741 32.008C152.509 31.4533 153.725 31.176 155.389 31.176C156.328 31.176 156.968 31.3253 157.309 31.624C157.693 31.9227 157.885 32.3707 157.885 32.968C157.885 33.3093 157.65 34.4613 157.181 36.424C156.754 38.0027 156.413 39.432 156.157 40.712C155.816 42.4613 155.517 44.1467 155.261 45.768C155.005 47.3467 154.877 48.648 154.877 49.672C154.877 51.2933 155.325 52.104 156.221 52.104C156.861 52.104 157.65 51.464 158.589 50.184C159.57 48.904 160.594 46.9627 161.661 44.36C162.77 41.7573 163.837 38.5573 164.861 34.76C165.202 33.48 165.714 32.5627 166.397 32.008C167.122 31.4533 168.189 31.176 169.597 31.176ZM151.933 83.912C153 83.912 154.194 82.6747 155.517 80.2C156.84 77.7253 158.162 73.608 159.485 67.848C156.2 70.6213 153.81 73.1387 152.317 75.4C150.866 77.704 150.141 79.7093 150.141 81.416C150.141 82.1413 150.269 82.7387 150.525 83.208C150.824 83.6773 151.293 83.912 151.933 83.912Z" fill="url(#paint0_linear_1_5)" shape-rendering="crispEdges"/>
</g>
<defs>
<filter id="filter0_d_1_5" x="0.743999" y="0.839996" width="175.477" height="97.28" filterUnits="userSpaceOnUse" color-interpolation-filters="sRGB">
<feFlood flood-opacity="0" result="BackgroundImageFix"/>
<feColorMatrix in="SourceAlpha" type="matrix" values="0 0 0 0 0 0 0 0 0 0 0 0 0 0 0 0 0 0 127 0" result="hardAlpha"/>
<feOffset dy="4"/>
<feGaussianBlur stdDeviation="2"/>
<feComposite in2="hardAlpha" operator="out"/>
<feColorMatrix type="matrix" values="0 0 0 0 0 0 0 0 0 0 0 0 0 0 0 0 0 0 0.25 0"/>
<feBlend mode="normal" in2="BackgroundImageFix" result="effect1_dropShadow_1_5"/>
<feBlend mode="normal" in="SourceGraphic" in2="effect1_dropShadow_1_5" result="shape"/>
</filter>
<linearGradient id="paint0_linear_1_5" x1="32.5" y1="90" x2="173" y2="90" gradientUnits="userSpaceOnUse">
<stop stop-color="#39CCCC"/>
<stop offset="1" stop-color="#CC3991" stop-opacity="0.6"/>
</linearGradient>
</defs>
</svg>
